# xmcd
# Copyright (C) 1995-1998 Ti Kan
#
# Track frame offsets:
#       150
#       13322
#       29388
#       42809
#       56626
#       70978
#       86805
#       101462
#       115093
#       127750
#       142021
#
# Disc length: 2082 seconds
#
# Revision: 0
# Processed by: cddbd v1.5.2PL0 Copyright (c) Steve Scherf et al.
# Submitted via: CD-Import v1.0
#
DISCID=9408200b
DTITLE=Art Brut - It's A Bit Complicated
DYEAR=2007
DGENRE=
TTITLE0=Pump Up The Volume
TTITLE1=Direct Hit
TTITLE2=St Pauli
TTITLE3=People In Love
TTITLE4=Late Sunday Evening
TTITLE5=I Will Survive
TTITLE6=Post Soothing Out
TTITLE7=Blame It On The Trains
TTITLE8=Sound Of Summer
TTITLE9=Nag Nag Nag Nag
TTITLE10=Jealous Guy
EXTD=
EXTT0=
EXTT1=
EXTT2=
EXTT3=
EXTT4=
EXTT5=
EXTT6=
EXTT7=
EXTT8=
EXTT9=
EXTT10=
PLAYORDER=
